<svg width="95" height="95" viewBox="0 0 95 95" fill="none" xmlns="http://www.w3.org/2000/svg">
<path fill-rule="evenodd" clip-rule="evenodd" d="M8.64088 35.2691L5.82759 60.5887C5.42306 64.2014 6.3032 67.8413 8.3137 70.87C10.3242 73.8988 13.3367 76.1232 16.8231 77.1532C20.3094 78.1831 24.0471 77.953 27.3807 76.503C30.7144 75.053 33.4312 72.4758 35.0549 69.2233L37.4922 64.3487H57.635L60.0723 69.2233C61.696 72.4758 64.4128 75.053 67.7465 76.503C71.0801 77.953 74.8178 78.1831 78.3041 77.1532C81.7905 76.1232 84.803 73.8988 86.8135 70.87C88.824 67.8413 89.7041 64.2014 89.2996 60.5887L86.4796 35.2691C85.9328 30.3439 83.5897 25.7931 79.8984 22.487C76.207 19.1809 71.4265 17.3515 66.471 17.3487H28.6696C23.7118 17.3482 18.928 19.1761 15.2338 22.4825C11.5396 25.7889 9.1946 30.3416 8.64759 35.2691H8.64088ZM29.9386 29.938C32.255 29.938 34.135 31.818 34.135 34.1344V37.7736H37.7742C38.8871 37.7736 39.9545 38.2157 40.7415 39.0027C41.5285 39.7896 41.9706 40.857 41.9706 41.97C41.9706 43.0829 41.5285 44.1503 40.7415 44.9373C39.9545 45.7243 38.8871 46.1664 37.7742 46.1664H34.135V49.7988C34.135 50.9118 33.6929 51.9792 32.9059 52.7662C32.1189 53.5531 31.0516 53.9953 29.9386 53.9953C28.8256 53.9953 27.7583 53.5531 26.9713 52.7662C26.1843 51.9792 25.7422 50.9118 25.7422 49.7988V46.1664H22.103C20.9901 46.1664 19.9227 45.7243 19.1357 44.9373C18.3487 44.1503 17.9066 43.0829 17.9066 41.97C17.9066 40.857 18.3487 39.7896 19.1357 39.0027C19.9227 38.2157 20.9901 37.7736 22.103 37.7736H25.7422V34.1344C25.7422 31.818 27.6222 29.938 29.9386 29.938ZM62.7715 50.3628C63.8844 50.3628 64.9518 49.9207 65.7388 49.1337C66.5258 48.3467 66.9679 47.2794 66.9679 46.1664C66.9679 45.0534 66.5258 43.9861 65.7388 43.1991C64.9518 42.4121 63.8844 41.97 62.7715 41.97C61.6585 41.97 60.5911 42.4121 59.8041 43.1991C59.0171 43.9861 58.575 45.0534 58.575 46.1664C58.575 47.2794 59.0171 48.3467 59.8041 49.1337C60.5911 49.9207 61.6585 50.3628 62.7715 50.3628ZM75.3675 35.7593C75.3675 36.8722 74.9253 37.9396 74.1383 38.7266C73.3514 39.5136 72.284 39.9557 71.171 39.9557C70.0581 39.9557 68.9907 39.5136 68.2037 38.7266C67.4167 37.9396 66.9746 36.8722 66.9746 35.7593C66.9746 34.6463 67.4167 33.5789 68.2037 32.7919C68.9907 32.005 70.0581 31.5628 71.171 31.5628C72.284 31.5628 73.3514 32.005 74.1383 32.7919C74.9253 33.5789 75.3675 34.6463 75.3675 35.7593Z" fill="#A9927D"/>
</svg>
