<svg width="48" height="48" viewBox="0 0 48 48" fill="none" xmlns="http://www.w3.org/2000/svg">
<path fill-rule="evenodd" clip-rule="evenodd" d="M4.12434 17.7223L2.68777 30.6514C2.4812 32.4962 2.93063 34.3549 3.95727 35.9015C4.9839 37.4481 6.52221 38.5839 8.30248 39.1099C10.0827 39.6358 11.9913 39.5183 13.6936 38.7779C15.3959 38.0375 16.7832 36.7214 17.6123 35.0606L18.8569 32.5714H29.1426L30.3872 35.0606C31.2163 36.7214 32.6036 38.0375 34.3059 38.7779C36.0082 39.5183 37.9168 39.6358 39.6971 39.1099C41.4773 38.5839 43.0156 37.4481 44.0423 35.9015C45.0689 34.3549 45.5183 32.4962 45.3118 30.6514L43.8718 17.7223C43.5926 15.2073 42.3961 12.8834 40.5111 11.1952C38.6262 9.50698 36.1851 8.57283 33.6546 8.57141L14.3518 8.57141C11.8201 8.57114 9.37734 9.50454 7.49095 11.1929C5.60455 12.8813 4.40709 15.2061 4.12777 17.7223H4.12434ZM14.9998 15C16.1826 15 17.1426 15.96 17.1426 17.1428V19.0011H19.0009C19.5692 19.0011 20.1143 19.2269 20.5161 19.6288C20.918 20.0306 21.1438 20.5757 21.1438 21.144C21.1438 21.7123 20.918 22.2573 20.5161 22.6592C20.1143 23.0611 19.5692 23.2868 19.0009 23.2868H17.1426V25.1417C17.1426 25.71 16.9169 26.2551 16.515 26.6569C16.1131 27.0588 15.5681 27.2846 14.9998 27.2846C14.4314 27.2846 13.8864 27.0588 13.4845 26.6569C13.0827 26.2551 12.8569 25.71 12.8569 25.1417V23.2868H10.9986C10.4303 23.2868 9.88526 23.0611 9.4834 22.6592C9.08153 22.2573 8.85577 21.7123 8.85577 21.144C8.85577 20.5757 9.08153 20.0306 9.4834 19.6288C9.88526 19.2269 10.4303 19.0011 10.9986 19.0011H12.8569V17.1428C12.8569 15.96 13.8169 15 14.9998 15ZM31.7655 25.4297C32.3338 25.4297 32.8788 25.2039 33.2807 24.8021C33.6826 24.4002 33.9083 23.8552 33.9083 23.2868C33.9083 22.7185 33.6826 22.1735 33.2807 21.7716C32.8788 21.3697 32.3338 21.144 31.7655 21.144C31.1972 21.144 30.6521 21.3697 30.2503 21.7716C29.8484 22.1735 29.6226 22.7185 29.6226 23.2868C29.6226 23.8552 29.8484 24.4002 30.2503 24.8021C30.6521 25.2039 31.1972 25.4297 31.7655 25.4297ZM38.1975 17.9726C38.1975 18.5409 37.9717 19.0859 37.5699 19.4878C37.168 19.8896 36.6229 20.1154 36.0546 20.1154C35.4863 20.1154 34.9413 19.8896 34.5394 19.4878C34.1375 19.0859 33.9118 18.5409 33.9118 17.9726C33.9118 17.4042 34.1375 16.8592 34.5394 16.4573C34.9413 16.0555 35.4863 15.8297 36.0546 15.8297C36.6229 15.8297 37.168 16.0555 37.5699 16.4573C37.9717 16.8592 38.1975 17.4042 38.1975 17.9726Z" fill="#A9927D"/>
</svg>
