<svg width="48" height="48" viewBox="0 0 48 48" fill="none" xmlns="http://www.w3.org/2000/svg">
<circle cx="24" cy="24" r="24" fill="#0A0908"/>
<path fill-rule="evenodd" clip-rule="evenodd" d="M7.43728 18.7685L6.24013 29.5428C6.06799 31.0802 6.44252 32.629 7.29805 33.9179C8.15358 35.2067 9.4355 36.1532 10.9191 36.5915C12.4026 37.0298 13.9931 36.9319 15.4117 36.3149C16.8303 35.6979 17.9864 34.6012 18.6773 33.2171L19.7144 31.1428H28.2858L29.323 33.2171C30.0139 34.6012 31.17 35.6979 32.5886 36.3149C34.0072 36.9319 35.5977 37.0298 37.0812 36.5915C38.5648 36.1532 39.8467 35.2067 40.7022 33.9179C41.5577 32.629 41.9323 31.0802 41.7601 29.5428L40.5601 18.7685C40.3275 16.6727 39.3304 14.7362 37.7596 13.3293C36.1888 11.9225 34.1546 11.144 32.0458 11.1428H15.9601C13.8504 11.1426 11.8148 11.9204 10.2428 13.3274C8.67079 14.7344 7.6729 16.6717 7.44013 18.7685H7.43728ZM16.5001 16.5C17.4858 16.5 18.2858 17.3 18.2858 18.2857V19.8343H19.8344C20.308 19.8343 20.7622 20.0224 21.0971 20.3573C21.432 20.6922 21.6201 21.1464 21.6201 21.62C21.6201 22.0936 21.432 22.5478 21.0971 22.8827C20.7622 23.2175 20.308 23.4057 19.8344 23.4057H18.2858V24.9514C18.2858 25.425 18.0977 25.8792 17.7628 26.2141C17.4279 26.549 16.9737 26.7371 16.5001 26.7371C16.0265 26.7371 15.5723 26.549 15.2374 26.2141C14.9026 25.8792 14.7144 25.425 14.7144 24.9514V23.4057H13.1658C12.6922 23.4057 12.238 23.2175 11.9032 22.8827C11.5683 22.5478 11.3801 22.0936 11.3801 21.62C11.3801 21.1464 11.5683 20.6922 11.9032 20.3573C12.238 20.0224 12.6922 19.8343 13.1658 19.8343H14.7144V18.2857C14.7144 17.3 15.5144 16.5 16.5001 16.5ZM30.4716 25.1914C30.9452 25.1914 31.3994 25.0033 31.7343 24.6684C32.0691 24.3335 32.2573 23.8793 32.2573 23.4057C32.2573 22.9321 32.0691 22.4779 31.7343 22.143C31.3994 21.8081 30.9452 21.62 30.4716 21.62C29.998 21.62 29.5438 21.8081 29.2089 22.143C28.874 22.4779 28.6858 22.9321 28.6858 23.4057C28.6858 23.8793 28.874 24.3335 29.2089 24.6684C29.5438 25.0033 29.998 25.1914 30.4716 25.1914ZM35.8316 18.9771C35.8316 19.4507 35.6434 19.9049 35.3085 20.2398C34.9737 20.5747 34.5194 20.7628 34.0458 20.7628C33.5722 20.7628 33.118 20.5747 32.7832 20.2398C32.4483 19.9049 32.2601 19.4507 32.2601 18.9771C32.2601 18.5035 32.4483 18.0493 32.7832 17.7144C33.118 17.3795 33.5722 17.1914 34.0458 17.1914C34.5194 17.1914 34.9737 17.3795 35.3085 17.7144C35.6434 18.0493 35.8316 18.5035 35.8316 18.9771Z" fill="#A9927D"/>
</svg>
